<?xml version="1.0" standalone="no"?>
<!DOCTYPE svg PUBLIC "-//W3C//DTD SVG 20010904//EN"
 "http://www.w3.org/TR/2001/REC-SVG-20010904/DTD/svg10.dtd">
<svg version="1.0" xmlns="http://www.w3.org/2000/svg"
 width="1024.000000pt" height="1024.000000pt" viewBox="0 0 1024.000000 1024.000000"
 preserveAspectRatio="xMidYMid meet">

<g transform="translate(0.000000,1024.000000) scale(0.100000,-0.100000)"
fill="#EA580C" stroke="none">
<path d="M2870 8663 c-186 -20 -358 -71 -510 -149 -136 -71 -222 -135 -346
-258 -164 -165 -276 -351 -335 -560 -65 -225 -62 -96 -60 -2531 2 -1934 4
-2226 17 -2335 44 -351 170 -609 412 -842 90 -87 226 -184 333 -238 78 -40
238 -94 344 -116 87 -18 173 -19 2390 -19 2212 0 2303 1 2390 19 291 61 511
177 708 373 233 234 359 504 396 853 15 141 17 4465 2 4590 -22 184 -78 366
-156 505 -208 372 -533 609 -950 692 -85 17 -219 18 -2345 19 -1240 0 -2271
-1 -2290 -3z m4536 -294 c342 -47 671 -281 821 -584 36 -73 65 -155 89 -255
17 -71 18 -195 20 -2315 2 -1340 -1 -2276 -7 -2330 -27 -261 -127 -474 -308
-656 -181 -182 -383 -285 -626 -319 -57 -8 -714 -10 -2330 -7 -2485 3 -2295
-2 -2471 66 -138 53 -248 126 -360 236 -151 148 -233 287 -291 490 l-28 100 0
2350 0 2350 24 85 c98 352 349 618 696 740 175 61 48 58 2472 59 1544 1 2245
-2 2299 -10z"/>
<path d="M3930 7469 c-94 -12 -215 -53 -289 -96 -74 -43 -185 -143 -235 -212
-41 -56 -241 -425 -435 -803 -113 -221 -144 -291 -154 -345 -18 -95 -14 -2589
3 -2666 42 -185 195 -351 384 -417 139 -49 79 -48 1941 -51 l1750 -4 80 23
c116 34 210 87 286 162 72 72 109 129 148 229 l25 66 6 1270 c4 699 3 1299 -2
1335 -7 58 -38 125 -273 594 -146 291 -280 549 -297 575 -107 156 -267 268
-463 323 l-80 23 -1165 1 c-641 1 -1194 -2 -1230 -7z m1060 -844 l0 -586 -937
7 c-516 4 -939 7 -939 8 -3 2 374 716 431 817 78 139 134 210 197 252 54 36
138 71 188 80 14 2 258 5 543 6 l517 1 0 -585z m1395 556 c117 -47 192 -107
271 -217 35 -49 464 -896 464 -916 0 -11 -868 -18 -1355 -12 l-515 7 0 584 0
584 538 -3 537 -3 60 -24z m-379 -1403 l1180 2 -3 -1166 c-2 -820 -6 -1178
-14 -1207 -34 -128 -148 -227 -296 -257 -37 -8 -562 -10 -1765 -7 -1597 3
-1717 5 -1773 21 -115 34 -195 98 -243 195 l-27 56 -1 1066 c-1 587 -4 1119
-8 1182 -7 115 -7 115 16 120 13 3 412 2 888 -2 476 -3 1396 -5 2046 -3z"/>
</g>
</svg>
